<?xml version="1.0" standalone="no"?>
<!DOCTYPE svg PUBLIC "-//W3C//DTD SVG 20010904//EN"
 "http://www.w3.org/TR/2001/REC-SVG-20010904/DTD/svg10.dtd">
<svg version="1.0" xmlns="http://www.w3.org/2000/svg"
 width="512.000000pt" height="512.000000pt" viewBox="0 0 512.000000 512.000000"
 preserveAspectRatio="xMidYMid meet">

<g transform="translate(0.000000,512.000000) scale(0.100000,-0.100000)"
fill="#829984" stroke="none">
<path d="M0 2560 l0 -2560 2560 0 2560 0 0 2560 0 2560 -2560 0 -2560 0 0
-2560z m3404 1222 c235 -294 425 -536 423 -539 -3 -2 -77 -9 -166 -14 -255
-15 -338 -53 -400 -182 -29 -59 -181 -658 -277 -1087 -59 -268 -126 -436 -232
-585 -188 -264 -483 -428 -922 -510 -154 -29 -540 -81 -540 -72 0 3 20 17 45
32 72 42 217 167 280 241 119 140 226 332 295 529 42 122 337 1273 351 1372
27 190 -41 241 -341 258 -69 4 -133 10 -143 14 -14 5 54 71 315 306 182 165
453 409 601 543 148 134 273 240 277 235 4 -4 200 -248 434 -541z"/>
</g>
</svg>
